<svg width="47" height="47" viewBox="0 0 47 47" fill="none" xmlns="http://www.w3.org/2000/svg">
<mask id="mask0_1_6154" style="mask-type:luminance" maskUnits="userSpaceOnUse" x="0" y="0" width="47" height="47">
<path d="M46.5001 23.6262C46.5001 10.8448 36.1386 0.483398 23.3572 0.483398C10.5758 0.483398 0.214355 10.8448 0.214355 23.6262C0.214355 36.4077 10.5758 46.7691 23.3572 46.7691C36.1386 46.7691 46.5001 36.4077 46.5001 23.6262Z" fill="white"/>
</mask>
<g mask="url(#mask0_1_6154)">
<path d="M46.5001 23.6262C46.5001 10.8448 36.1386 0.483398 23.3572 0.483398C10.5758 0.483398 0.214355 10.8448 0.214355 23.6262C0.214355 36.4077 10.5758 46.7691 23.3572 46.7691C36.1386 46.7691 46.5001 36.4077 46.5001 23.6262Z" fill="#FEFA17"/>
<mask id="mask1_1_6154" style="mask-type:luminance" maskUnits="userSpaceOnUse" x="1" y="3" width="46" height="44">
<path d="M46.5004 3.37598H1.66113V46.7689H46.5004V3.37598Z" fill="white"/>
</mask>
<g mask="url(#mask1_1_6154)">
<path d="M46.5004 46.7686H1.66113C3.62728 45.7981 5.51178 44.6635 7.29547 43.3763C10.6518 40.9544 15.2078 38.5247 20.4473 38.059C29.3544 37.2672 40.3877 43.8188 46.5004 46.7686Z" fill="black"/>
<path d="M24.0764 31.6699C22.178 27.1133 18.7609 25.1338 16.9537 24.9553C16.4359 24.9211 15.9168 24.9958 15.4283 25.1747C14.9399 25.3536 14.4925 25.6329 14.1138 25.9955C14.3989 25.6421 14.7085 25.31 15.0402 25.0019C14.5618 24.5594 13.9999 24.1325 13.9999 24.1325C14.501 24.3731 15.0478 24.6914 15.2452 24.8156C15.7641 24.3529 16.3176 23.9325 16.9006 23.558C16.4014 23.1455 15.8763 22.7669 15.3287 22.4247C16.0156 22.6572 16.6792 22.9562 17.3106 23.3174C18.0936 22.8589 18.9083 22.4594 19.7481 22.122C19.4209 21.8437 19.0787 21.5845 18.723 21.3457C19.2143 21.5227 19.6916 21.7381 20.1505 21.99C21.0545 21.6397 21.9805 21.3519 22.9222 21.1284C18.2598 19.8009 14.6149 21.2836 13.3392 22.6265C12.8211 23.1804 12.4933 23.8915 12.4052 24.6526C11.8489 23.3569 10.8764 22.2943 9.64882 21.6407C6.86962 20.453 4.09041 22.7818 4.09041 22.7818C5.24542 22.5535 6.44118 22.6944 7.51506 23.1854L8.54777 22.4946L7.84917 23.3407C8.94252 23.9177 9.93127 24.6817 10.7726 25.5996C10.0732 25.1615 9.24543 24.9884 8.43386 25.1106C6.63422 25.4133 3.36144 27.6334 1.77441 32.3142C2.47313 31.67 3.21671 31.0785 3.99929 30.5444C4.06347 30.0206 4.16241 29.5019 4.29544 28.9918C4.28949 29.4326 4.30978 29.8733 4.35618 30.3115C5.10583 29.7935 5.89273 29.3342 6.71015 28.9375C6.77615 28.2009 6.91351 27.4728 7.1202 26.764C7.07644 27.4205 7.07644 28.0792 7.1202 28.7357C7.74698 28.4561 8.39445 28.2276 9.05653 28.0526C9.05653 27.8119 9.12487 27.1754 9.21599 26.6165C9.21599 26.6165 9.21599 27.3307 9.3223 27.9827C9.57035 27.9258 9.82346 27.8792 10.0816 27.843C9.17043 28.759 8.25162 30.7384 8.33515 34.9923C8.33515 34.9923 8.87428 33.727 9.56529 32.4074C9.43163 31.8771 9.36026 31.3325 9.35267 30.785C9.35267 30.785 9.5501 31.4293 9.77031 32.0115C9.97533 31.6234 10.1955 31.2352 10.4082 30.9014L10.4613 30.8161C10.3854 30.3969 10.2487 29.5585 10.2107 28.9763C10.2107 28.9763 10.4309 29.7526 10.6891 30.459C11.2073 29.6421 11.8163 28.8893 12.504 28.2156C16.7411 35.6521 16.3007 46.481 16.3007 46.481L18.2902 46.3024C17.7434 35.9782 14.4631 29.8224 13.2405 27.8585C14.2272 27.6754 15.2381 27.6754 16.2247 27.8585C16.2247 27.1987 16.2247 26.4845 16.2247 26.4845C16.3538 27.0357 16.4449 27.6722 16.4753 27.9051C17.1488 28.0331 17.8115 28.2147 18.4572 28.4485C18.4713 27.7821 18.4408 27.1156 18.3661 26.4535C18.6199 27.1471 18.8056 27.8648 18.9204 28.596C19.7756 28.9225 20.6057 29.3144 21.4035 29.7681C21.4283 29.3286 21.4283 28.888 21.4035 28.4485C21.5701 28.956 21.702 29.4748 21.7983 30.001C22.5959 30.5007 23.3572 31.0584 24.0764 31.6699Z" fill="black"/>
<path d="M12.5196 23.3957C13.613 16.4793 17.6376 12.5825 20.0675 11.7053C20.7654 11.4764 21.5021 11.3976 22.2313 11.4737C22.9605 11.5498 23.6663 11.7793 24.3046 12.1478C23.7957 11.7712 23.2602 11.4339 22.7024 11.1386C23.2111 10.3624 23.8414 9.58614 23.8414 9.58614C23.2339 10.0907 22.5961 10.7194 22.3607 10.9523C21.4981 10.5045 20.6017 10.1281 19.6802 9.82678C20.2236 9.08126 20.8146 8.37332 21.4495 7.70759C20.5826 8.24937 19.7711 8.8787 19.0272 9.58614C17.7969 9.23459 16.5432 8.97515 15.276 8.80988C15.6298 8.30287 16.01 7.81571 16.415 7.35051C15.8044 7.77169 15.2234 8.23598 14.6761 8.74002C13.3439 8.57058 12.0012 8.50312 10.6592 8.53819C16.62 5.07608 22.1101 5.84457 24.297 7.25736C25.19 7.83814 25.8789 8.69461 26.2637 9.70258C26.7041 7.79298 27.5242 5.75142 29.0353 4.61032C32.4068 2.04867 36.9932 4.26877 36.9932 4.26877C35.3348 4.35701 33.7435 4.96704 32.4372 6.01535L30.7894 5.42539L32.0347 6.34914C30.7252 7.51451 29.6208 8.90081 28.7695 10.4477C29.5904 9.62515 30.6626 9.11547 31.8069 9.00395C34.3887 8.80988 39.6282 10.7039 43.3414 16.5724C42.1613 15.9154 40.9384 15.3422 39.6813 14.8569C39.4251 14.1515 39.118 13.4665 38.7625 12.8076C38.9155 13.4108 39.0346 14.0224 39.1194 14.6395C37.9165 14.1928 36.683 13.8374 35.429 13.5761C35.0973 12.5867 34.6673 11.6347 34.1457 10.735C34.4116 11.6251 34.6171 12.5328 34.7608 13.4519C33.8075 13.2832 32.8426 13.1923 31.8753 13.1802C31.769 12.8619 31.488 12.0003 31.1767 11.2706C31.1767 11.2706 31.3817 12.2642 31.488 13.1802C31.1311 13.1802 30.7287 13.1802 30.4173 13.2423C31.936 14.1893 33.8875 16.5802 35.1784 22.4487C35.1784 22.4487 34.0166 20.8962 32.6346 19.3437C32.6457 18.5598 32.5615 17.7776 32.384 17.0149C32.384 17.0149 32.3309 17.9697 32.2246 18.8469C31.8145 18.3889 31.3893 17.9386 30.9792 17.5428L30.8805 17.4496C30.8805 16.8441 30.7514 15.6564 30.6072 14.8414C30.6072 14.8414 30.6072 15.9902 30.4401 17.0459C29.4739 16.1232 28.4062 15.3183 27.2584 14.6473C23.9249 26.2912 28.1013 41.0401 28.1013 41.0401L25.3069 41.4903C22.6492 27.1528 25.1019 17.535 26.127 14.4067C24.7136 14.4881 23.3254 14.8245 22.0266 15.4003C21.7532 14.5153 21.5482 13.5217 21.5482 13.5217C21.5549 14.2039 21.5954 14.8853 21.6697 15.5633C20.7853 15.9681 19.9345 16.4458 19.1259 16.9916C18.8966 16.0882 18.7267 15.1702 18.6171 14.2437C18.5025 15.2746 18.4872 16.3146 18.5715 17.3487C17.5285 18.107 16.5413 18.9424 15.6177 19.8482C15.4508 19.2482 15.3164 18.6392 15.2152 18.024C15.1642 18.7761 15.1642 19.5309 15.2152 20.2829C14.2433 21.2516 13.3423 22.292 12.5196 23.3957Z" fill="black"/>
</g>
</g>
</svg>
