<svg width="21" height="21" viewBox="0 0 21 21" fill="none" xmlns="http://www.w3.org/2000/svg">
<path d="M19.1008 4.83779C19.1005 4.83135 19.0998 4.8249 19.0987 4.81849C19.0737 4.78278 19.043 4.75205 19.0172 4.71705C18.8305 4.46268 18.6328 4.21785 18.4242 3.98252C18.367 3.91821 18.3099 3.85462 18.2513 3.79174C18.0365 3.56169 17.8112 3.34231 17.5754 3.13369C17.5318 3.09509 17.4911 3.05511 17.4475 3.01722C16.8664 2.5194 16.2301 2.08977 15.5512 1.73685C15.524 1.72257 15.4954 1.71043 15.4676 1.69611C15.1652 1.54246 14.8552 1.40435 14.5387 1.28239C14.4672 1.25669 14.4022 1.23236 14.3343 1.21093C14.0528 1.10949 13.767 1.02065 13.4769 0.944411C13.3912 0.921551 13.3054 0.897981 13.2183 0.877971C12.9325 0.811531 12.6467 0.760791 12.3544 0.719341C12.2658 0.706491 12.1787 0.689321 12.0893 0.678611C11.3366 0.587131 10.5756 0.587131 9.82294 0.678611C9.73364 0.689321 9.64644 0.706491 9.55784 0.719341C9.26564 0.760791 8.97694 0.811531 8.69398 0.877971C8.60682 0.897981 8.52108 0.921551 8.43534 0.944411C8.14333 1.02061 7.85755 1.10945 7.57793 1.21093C7.50647 1.23521 7.44145 1.25954 7.37358 1.28239C7.05712 1.40435 6.74706 1.54242 6.44471 1.69611C6.41683 1.71039 6.38827 1.72253 6.3611 1.73685C5.67991 2.0894 5.0415 2.51898 4.45835 3.01722C4.41477 3.05507 4.37403 3.09509 4.33045 3.13369C4.09228 3.34327 3.86696 3.56265 3.65453 3.79174C3.59596 3.85462 3.53877 3.91821 3.48162 3.98252C3.27251 4.21735 3.07482 4.46218 2.8886 4.71701C2.86289 4.75201 2.83216 4.78274 2.80713 4.81845C2.80386 4.82469 2.80097 4.83114 2.79854 4.83775C0.33408 8.29155 0.33408 12.929 2.79854 16.3828C2.80097 16.3894 2.80382 16.3958 2.80713 16.4021C2.83212 16.4378 2.86285 16.4685 2.8886 16.5035C3.07486 16.7579 3.27251 17.0027 3.48162 17.238C3.53877 17.3023 3.59596 17.3659 3.65453 17.4288C3.86984 17.6589 4.09512 17.8782 4.33045 18.0869C4.37403 18.1255 4.41477 18.1654 4.45835 18.2033C5.03945 18.7012 5.67572 19.1308 6.35466 19.4837C6.38183 19.498 6.41038 19.5101 6.43826 19.5244C6.74062 19.6781 7.05063 19.8162 7.36714 19.9382C7.4386 19.9639 7.50362 19.9882 7.57148 20.0096C7.85299 20.1111 8.1388 20.1999 8.42889 20.2761C8.51463 20.299 8.60037 20.3226 8.68754 20.3426C8.97334 20.409 9.25914 20.4598 9.55144 20.5012C9.63994 20.5141 9.72714 20.5312 9.81644 20.5419C10.5692 20.6334 11.3301 20.6334 12.0829 20.5419C12.1722 20.5312 12.2594 20.5141 12.348 20.5012C12.6402 20.4598 12.9289 20.409 13.2118 20.3426C13.299 20.3226 13.3847 20.299 13.4705 20.2761C13.763 20.1999 14.0488 20.1111 14.3279 20.0096C14.3994 19.9853 14.4644 19.961 14.5322 19.9382C14.8487 19.8162 15.1588 19.6781 15.4611 19.5244C15.489 19.5102 15.5175 19.498 15.5447 19.4837C16.2237 19.1307 16.8599 18.7012 17.441 18.2033C17.4846 18.1654 17.5253 18.1255 17.5689 18.0869C17.8071 17.8777 18.0324 17.6584 18.2448 17.4288C18.3034 17.3659 18.3606 17.3023 18.4178 17.238C18.6269 17.0027 18.8246 16.7579 19.0108 16.5035C19.0365 16.4685 19.0672 16.4378 19.0922 16.4021C19.0955 16.3958 19.0984 16.3894 19.1008 16.3828C21.5653 12.929 21.5653 8.29159 19.1008 4.83779ZM18.2856 6.18968C18.9689 7.31507 19.3815 8.58377 19.4909 9.8958H15.211C15.1586 9.0445 15.0247 8.20011 14.8109 7.37435C16.0199 7.14794 17.1901 6.74896 18.2856 6.18968ZM12.771 2.23341C12.811 2.24271 12.8496 2.25556 12.8896 2.26486C13.1454 2.32489 13.3991 2.39347 13.647 2.47921C13.6849 2.49206 13.722 2.50709 13.7592 2.52066C14.005 2.6064 14.2472 2.70143 14.4844 2.80647C14.5259 2.82577 14.5666 2.84721 14.6081 2.86651C14.8353 2.97465 15.0572 3.09158 15.274 3.21734L15.4169 3.30379C15.6226 3.42956 15.8227 3.56412 16.017 3.70751C16.0671 3.74393 16.1171 3.77897 16.1664 3.81895C16.3569 3.96184 16.5394 4.11498 16.7137 4.27839C16.7594 4.31983 16.8066 4.36057 16.8516 4.40344C17.0345 4.57706 17.2088 4.76068 17.3775 4.95075C17.3989 4.97574 17.4218 4.9986 17.4432 5.02221C16.4757 5.48328 15.4508 5.81251 14.3958 6.00107C13.9071 4.65752 13.2615 3.37635 12.4724 2.18418C12.5716 2.20202 12.6731 2.21202 12.771 2.23341ZM8.12101 9.8958C8.17736 9.1227 8.30899 8.35694 8.514 7.60939C9.32354 7.70555 10.1381 7.75324 10.9533 7.75227C11.7693 7.75202 12.5846 7.70312 13.3948 7.60579C13.5994 8.35455 13.7303 9.1215 13.7856 9.8958H8.12101ZM13.7856 11.3248C13.7293 12.0979 13.5976 12.8637 13.3926 13.6112C12.5831 13.5151 11.7685 13.4674 10.9533 13.4684C10.1373 13.4674 9.32214 13.5151 8.51183 13.6112C8.3074 12.8637 8.17653 12.0979 8.12097 11.3248H13.7856ZM10.9533 2.50211C11.7664 3.65455 12.4351 4.90235 12.9446 6.21756C12.2832 6.28781 11.6185 6.32311 10.9533 6.32331C10.2888 6.32252 9.62484 6.28702 8.96414 6.21685C9.47424 4.90252 10.1421 3.65513 10.9533 2.50211ZM4.5299 4.94999C4.69782 4.75992 4.87286 4.5763 5.05577 4.40268C5.10078 4.35981 5.14796 4.31908 5.19368 4.27763C5.36993 4.11712 5.55238 3.96397 5.74099 3.8182C5.79031 3.78031 5.84029 3.74673 5.89032 3.70675C6.08466 3.56386 6.28474 3.42927 6.49051 3.30304L6.6334 3.21659C6.85014 3.0899 7.07211 2.97293 7.29931 2.86575C7.34076 2.84645 7.3815 2.82502 7.42294 2.80572C7.66015 2.69854 7.90239 2.60351 8.14818 2.5199C8.18532 2.50634 8.21965 2.49131 8.26034 2.47845C8.50827 2.39556 8.76051 2.32698 9.01774 2.2641C9.05774 2.25481 9.09634 2.24196 9.13704 2.23337C9.23494 2.21194 9.33644 2.20193 9.43574 2.18406C8.6463 3.37643 8.00048 4.65786 7.51153 6.00166C6.45656 5.8131 5.4316 5.48387 4.46417 5.0228C4.48561 4.99785 4.50846 4.97499 4.5299 4.94999ZM3.62104 6.18968C4.71629 6.74892 5.88622 7.1479 7.09497 7.37435C6.88149 8.20015 6.74773 9.0445 6.69557 9.8958H2.41568C2.52512 8.58377 2.93775 7.31507 3.62104 6.18968ZM3.62104 15.031C2.93771 13.9056 2.52508 12.6369 2.41568 11.3248H6.69557C6.74798 12.1762 6.88196 13.0206 7.09568 13.8463C5.88672 14.0727 4.71654 14.4717 3.62104 15.031ZM9.13564 18.9872C9.09564 18.9779 9.05704 18.9651 9.01704 18.9558C8.76122 18.8957 8.50756 18.8272 8.25963 18.7414C8.22174 18.7286 8.18461 18.7135 8.14743 18.7C7.90164 18.6142 7.65944 18.5192 7.42219 18.4142C7.38074 18.3949 7.34001 18.3734 7.29856 18.3541C7.07136 18.246 6.84938 18.1291 6.63264 18.0033L6.48976 17.9168C6.28399 17.7911 6.08391 17.6565 5.88957 17.5131C5.83954 17.4767 5.78955 17.4417 5.74024 17.4017C5.54971 17.2588 5.36725 17.1057 5.19293 16.9422C5.14721 16.9008 5.10003 16.8601 5.05502 16.8172C4.87211 16.6436 4.69778 16.46 4.52915 16.2699C4.50771 16.2449 4.48485 16.222 4.46342 16.1984C5.43089 15.7374 6.4558 15.4081 7.51078 15.2196C7.99952 16.5631 8.64513 17.8443 9.43424 19.0365C9.33494 19.0187 9.23354 19.0087 9.13564 18.9872ZM10.9533 18.7186C10.1402 17.5661 9.47144 16.3183 8.96194 15.0031C10.2852 14.8607 11.6199 14.8607 12.9431 15.0031C12.4331 16.3174 11.7645 17.5655 10.9533 18.7186ZM17.3767 16.2706C17.2088 16.4607 17.0338 16.6443 16.8508 16.818C16.8058 16.8608 16.7587 16.9016 16.7129 16.943C16.5367 17.104 16.3542 17.2572 16.1656 17.4024C16.1163 17.4403 16.0663 17.4775 16.0163 17.5139C15.822 17.6568 15.6219 17.7914 15.4161 17.9176L15.2732 18.004C15.0569 18.1303 14.835 18.2472 14.6073 18.3549C14.5659 18.3742 14.5251 18.3956 14.4837 18.4149C14.2465 18.5221 14.0042 18.6171 13.7584 18.7007C13.7213 18.7143 13.687 18.7293 13.6463 18.7422C13.3983 18.8251 13.1461 18.8936 12.8889 18.9565C12.8489 18.9658 12.8103 18.9787 12.7696 18.9873C12.6717 19.0087 12.5702 19.0187 12.4709 19.0366C13.26 17.8444 13.9056 16.5632 14.3943 15.2197C15.4493 15.4082 16.4743 15.7375 17.4417 16.1985C17.421 16.2228 17.3982 16.2456 17.3767 16.2706ZM18.2856 15.031C17.1903 14.4718 16.0204 14.0728 14.8116 13.8463C15.0251 13.0205 15.1589 12.1762 15.211 11.3248H19.4909C19.3815 12.6369 18.9689 13.9056 18.2856 15.031Z" fill="black"/>
</svg>
